<?xml version="1.0" encoding="UTF-8"?>
<svg id="Layer_1" data-name="Layer 1" xmlns="http://www.w3.org/2000/svg" xmlns:xlink="http://www.w3.org/1999/xlink" viewBox="0 0 28.35 28.35">
  <defs>
    <style>
      .cls-1, .cls-2 {
        fill: none;
      }

      .cls-2 {
        stroke: #575c5e;
        stroke-linejoin: round;
        stroke-width: .3px;
      }

      .cls-3 {
        clip-path: url(#clippath);
      }
    </style>
    <clipPath id="clippath">
      <rect class="cls-1" x="2.16" y="10.82" width="24.03" height="6.7"/>
    </clipPath>
  </defs>
  <g class="cls-3">
    <path class="cls-2" d="M10,11.93L.92,2.86M10,13.45L-.59,2.86M10,14.96L-2.1,2.86M10,16.47L-3.61,2.86M10,17.98L-5.13,2.86M10,19.5L-6.64,2.86M10,21.01L-8.15,2.86M10,22.52L-9.66,2.86M10,24.03L-11.18,2.86M28.15,11.93L19.07,2.86M28.15,13.45L17.56,2.86M28.15,14.96L16.05,2.86M28.15,16.47L14.54,2.86M28.15,17.98L13.02,2.86M28.15,19.5L11.51,2.86M28.15,21.01L10,2.86M28.15,22.52L8.49,2.86M28.15,24.03L6.97,2.86M26.64,24.03L6.97,4.37M25.12,24.03L6.97,5.88M23.61,24.03L6.97,7.4M22.1,24.03L6.97,8.91M20.59,24.03L6.97,10.42M19.07,24.03L6.97,11.93M17.56,24.03L6.97,13.45M16.05,24.03L6.97,14.96M14.54,24.03l-7.56-7.56"/>
  </g>
</svg>